<svg width="45" height="30" viewBox="0 0 45 30" fill="none" xmlns="http://www.w3.org/2000/svg">
<path d="M36.2812 11.325C35.6514 8.13322 33.933 5.25911 31.4195 3.19359C28.906 1.12806 25.7533 -0.000735455 22.5 3.59506e-07C17.0812 3.59506e-07 12.375 3.075 10.0312 7.575C7.27544 7.87281 4.72689 9.17852 2.87529 11.2412C1.0237 13.3039 -0.000321941 15.9781 7.59239e-08 18.75C7.59239e-08 24.9562 5.04375 30 11.25 30H35.625C40.8 30 45 25.8 45 20.625C45 15.675 41.1562 11.6625 36.2812 11.325ZM35.625 26.25H11.25C7.10625 26.25 3.75 22.8937 3.75 18.75C3.75 14.9062 6.61875 11.7 10.425 11.3062L12.4313 11.1L13.3688 9.31875C14.2312 7.64034 15.54 6.2324 17.151 5.24989C18.7621 4.26737 20.613 3.74837 22.5 3.75C27.4125 3.75 31.65 7.2375 32.6062 12.0563L33.1688 14.8688L36.0375 15.075C37.447 15.1698 38.7683 15.795 39.7354 16.8247C40.7025 17.8545 41.2437 19.2123 41.25 20.625C41.25 23.7188 38.7188 26.25 35.625 26.25ZM18.75 19.0875L14.8312 15.1688L12.1875 17.8125L18.75 24.375L30.0188 13.1062L27.375 10.4625L18.75 19.0875Z" fill="#BDF5EC"/>
</svg>
