<svg width="43" height="21" viewBox="0 0 43 21" fill="none" xmlns="http://www.w3.org/2000/svg">
<path d="M25.5 0.25H18.75C17.5125 0.25 16.5 1.2625 16.5 2.5V11.5C16.5 12.7375 17.5125 13.75 18.75 13.75H25.5C26.7375 13.75 27.75 12.7375 27.75 11.5V2.5C27.75 1.2625 26.7375 0.25 25.5 0.25ZM24.375 10.375H19.875V3.625H24.375V10.375ZM12 9.25V11.5C12 12.7375 10.9875 13.75 9.75 13.75H3C1.7625 13.75 0.75 12.7375 0.75 11.5V2.5C0.75 1.2625 1.7625 0.25 3 0.25H9.75C10.9875 0.25 12 1.2625 12 2.5V4.75H8.625V3.625H4.125V10.375H8.625V9.25H12ZM40.125 14.875H35.625V17.125H42.375V20.5H32.25V14.875C32.25 13.6375 33.2625 12.625 34.5 12.625H39V10.375H32.25V7H40.125C41.3625 7 42.375 8.0125 42.375 9.25V12.625C42.375 13.8625 41.3625 14.875 40.125 14.875Z" fill="#BDF5EC"/>
</svg>
