<svg width="40" height="37" viewBox="0 0 40 37" fill="none" xmlns="http://www.w3.org/2000/svg">
<path d="M36.3636 0H3.63636C1.63636 0 0 1.63636 0 3.63636V25.4545C0 27.4545 1.63636 29.0909 3.63636 29.0909H16.3636L13.4 33.5455C12.6 34.7455 13.4545 36.3636 14.9091 36.3636H25.0909C26.5455 36.3636 27.4182 34.7455 26.6 33.5455L23.6364 29.0909H36.3636C38.3636 29.0909 40 27.4545 40 25.4545V3.63636C40 1.63636 38.3636 0 36.3636 0ZM36.3636 21.8182H3.63636V5.45455C3.63636 4.45455 4.45455 3.63636 5.45455 3.63636H34.5455C35.5455 3.63636 36.3636 4.45455 36.3636 5.45455V21.8182Z" fill="#BDF5EC"/>
</svg>
