<svg width="33" height="40" viewBox="0 0 33 40" fill="none" xmlns="http://www.w3.org/2000/svg">
<path d="M29.0909 23.6364V30.9091H25.4545V23.6364H29.0909ZM7.27273 23.6364V30.9091H5.45455C4.45455 30.9091 3.63636 30.0909 3.63636 29.0909V23.6364H7.27273ZM16.3636 0C12.0237 0 7.86157 1.72402 4.7928 4.7928C1.72402 7.86158 0 12.0237 0 16.3636V29.0909C0 32.1091 2.43636 34.5455 5.45455 34.5455H10.9091V20H3.63636V16.3636C3.63636 9.32727 9.32727 3.63636 16.3636 3.63636C23.4 3.63636 29.0909 9.32727 29.0909 16.3636V20H21.8182V34.5455H29.0909V36.3636H16.3636V40H27.2727C30.2909 40 32.7273 37.5636 32.7273 34.5455V16.3636C32.7273 12.0237 31.0032 7.86158 27.9345 4.7928C24.8657 1.72402 20.7035 0 16.3636 0Z" fill="#BDF5EC"/>
</svg>
