<svg width="44" height="55" viewBox="0 0 44 55" fill="none"
    xmlns="http://www.w3.org/2000/svg">
    <path d="M43.8595 20.3544C43.8512 20.2964 43.8447 20.238 43.8397 20.1796C43.5199 16.4058 42.1391 13.0506 39.8739 10.0411C37.7805 7.2594 35.1336 5.14517 32.0734 3.52627C29.9448 2.3998 27.6986 1.61485 25.3213 1.23768C24.472 1.10259 23.6066 1.07125 22.7488 0.990199C22.6654 0.982634 22.5842 0.962461 22.5019 0.94697C22.494 0.94625 22.4857 0.945529 22.4778 0.944809H22.163C22.1515 0.944809 22.1403 0.94589 22.1292 0.948772C22.0681 0.964262 22.0066 0.987677 21.9455 0.988758C19.6606 1.02766 17.4575 1.49669 15.3145 2.26832C12.1063 3.42288 9.3027 5.2201 6.87684 7.61747C5.30596 9.17009 4.0226 10.8931 3.04614 12.8006C2.25298 14.3503 1.80231 15.7938 1.63376 16.4029C1.45622 17.0427 1.3139 17.7308 1.3139 17.7308C1.20105 18.1836 1.15397 18.5175 1.08282 19.0528C1.01597 19.5518 0.982547 19.8007 0.971406 19.899C0.95775 20.0132 0.88695 20.6231 0.855684 21.1134C0.801417 21.9751 0.859278 22.6465 0.924327 23.402C0.951999 23.7258 1.03286 24.3667 1.15074 25.2129C1.50474 27.7644 2.35792 30.1402 3.67866 32.347C4.95952 34.4872 6.64468 36.2585 8.63172 37.7488C10.4772 39.1328 12.4764 40.2239 14.678 40.9289C16.6299 41.5536 18.6302 41.867 20.6787 41.8039C21.5966 41.7758 22.5224 41.733 23.4277 41.59C26.4001 41.1199 28.9205 39.7499 30.9963 37.5769C32.8928 35.592 34.1036 33.2235 34.7304 30.5588C35.1817 28.642 35.3093 26.6884 35.2813 24.7215C35.2587 23.1066 35.25 21.4913 35.2421 19.8756C35.2364 18.6508 35.2407 17.4264 35.2407 16.2016C35.2403 15.6266 34.9816 15.2066 34.472 14.9505C30.8752 13.1435 27.2767 11.3394 23.6792 9.53429C23.2677 9.32788 22.7829 9.32752 22.3711 9.53393C18.7776 11.3333 15.1841 13.1323 11.5909 14.9328C11.3275 15.0646 11.1295 15.2376 10.9958 15.4505C10.7618 15.8229 10.7841 16.2261 10.7902 16.3554C10.87 17.9919 10.787 19.6321 10.7959 21.2704C10.8089 23.6855 10.8207 25.7875 10.7877 26.692C10.783 26.8156 10.7679 27.1891 10.9825 27.5458C11.1154 27.7662 11.3153 27.9453 11.5834 28.085C15.1391 29.9449 18.6956 31.803 22.2474 33.6698C22.7685 33.9436 23.2616 33.9483 23.7799 33.6745C25.01 33.0246 26.2431 32.3798 27.4772 31.7368C27.5739 31.6863 27.6343 31.5865 27.6343 31.4774V29.0998C27.6343 28.8819 27.4053 28.7407 27.2113 28.8387C26.3218 29.2875 25.4348 29.7349 24.536 30.1877C24.4706 30.2209 24.3933 30.1733 24.3933 30.0998V30.0202C24.3933 27.571 24.3951 25.121 24.3897 22.6718C24.3894 22.5197 24.4404 22.4473 24.5716 22.3814C27.1549 21.0903 29.7352 19.7938 32.3167 18.4991C32.3462 18.4847 32.376 18.4707 32.4123 18.4538C32.4774 18.4242 32.5518 18.4725 32.5514 18.5442C32.551 19.0258 32.5536 20.5892 32.5536 20.5892C32.5643 22.6411 32.5899 23.5933 32.6132 24.0713C32.6172 24.1624 32.6412 24.6268 32.6362 25.2082C32.6341 25.5241 32.6236 25.7774 32.6154 25.9395C32.6096 26.0616 32.5992 26.2522 32.5801 26.486C32.5615 26.7151 32.5395 26.9308 32.5144 27.1538C32.3918 28.2147 32.3469 29.1106 32.0903 30.1442C31.3802 33.0055 29.906 35.052 27.9929 36.6338C25.9549 38.319 23.5391 39.0193 20.9238 39.1137C19.5204 39.1641 18.1184 38.9869 16.7571 38.6425C13.776 37.8878 11.0885 36.5582 8.86712 34.3978C5.18269 30.8153 3.4005 26.4499 3.62799 21.287C3.68405 20.0165 3.84829 18.761 4.16204 17.5279C4.98719 14.2811 6.70937 11.5729 9.10935 9.27492C11.565 6.92294 14.4401 5.31232 17.7041 4.37967C19.8582 3.76438 22.0397 3.52987 24.2657 3.83787C26.4742 4.14335 28.569 4.82672 30.5636 5.81413C33.3208 7.17871 35.6349 9.10057 37.5379 11.512C40.3763 15.1086 41.5551 19.2052 41.1008 23.7662C40.9255 25.527 40.4777 27.2266 39.857 28.8819C38.8299 31.6222 37.3316 34.0938 35.5746 36.417C33.6087 39.0161 31.3413 41.3356 28.9701 43.5572C26.7376 45.6487 24.4972 47.732 22.26 49.8188C22.0131 50.0494 21.7641 50.2778 21.4798 50.5411C21.437 50.5804 21.3691 50.5746 21.3342 50.5282C21.2663 50.4381 21.2063 50.3538 21.1337 50.2828C19.529 48.7291 17.9219 47.1765 16.3132 45.6264C15.7465 45.0799 15.1862 44.5252 14.6008 43.9996C13.8428 43.3191 12.5997 43.7002 12.3967 44.6999C12.2824 45.2604 12.471 45.7309 12.8675 46.1153C14.163 47.3725 15.4669 48.6207 16.7661 49.874C18.0189 51.0829 19.2706 52.2933 20.5213 53.5044C20.8002 53.7739 21.0744 54.0491 21.3504 54.3218C21.3666 54.3377 21.3917 54.3387 21.4086 54.3236C21.6606 54.1017 22.0149 53.7879 22.4372 53.4118C23.7662 52.227 27.4862 48.7072 31.0589 45.3458C33.5282 43.0223 35.8707 40.5791 37.9149 37.8637C40.0187 35.0682 41.719 32.0552 42.8133 28.7169C43.3801 26.9874 43.7272 25.2143 43.8674 23.3998C43.8782 23.2535 43.9155 20.7445 43.8602 20.3554L43.8595 20.3544ZM21.6422 30.1546C21.6422 30.1683 21.6411 30.182 21.6394 30.2014C21.6368 30.2321 21.6034 30.2501 21.5765 30.236C21.0819 29.9784 20.6086 29.7331 20.1357 29.4853C18.002 28.3678 15.8701 27.2479 13.7332 26.1358C13.5632 26.0475 13.5014 25.9528 13.5021 25.7572C13.5097 23.3976 13.5072 21.0381 13.5072 18.6785V18.636C13.5072 18.5323 13.615 18.4631 13.7084 18.5078C13.7091 18.5078 13.7095 18.5085 13.7102 18.5085C16.2978 19.8054 18.885 21.1029 21.4733 22.3987C21.5736 22.4491 21.6469 22.4909 21.6469 22.6332C21.6411 25.1401 21.6422 27.6474 21.6422 30.1542V30.1546ZM30.5924 16.3121C28.1198 17.5517 25.6469 18.7902 23.1754 20.0309C23.0679 20.0849 22.9802 20.1098 22.8573 20.0482C20.3628 18.7924 17.8654 17.5416 15.3688 16.2898C15.2973 16.2541 15.2965 16.1518 15.3673 16.1155C15.3688 16.1144 15.3702 16.1137 15.372 16.1126C17.868 14.8604 20.3639 13.6097 22.8587 12.3557C22.9551 12.3074 23.0683 12.3074 23.1646 12.3557C25.6515 13.6078 28.1406 14.8568 30.629 16.1068C30.661 16.123 30.6919 16.1414 30.7282 16.1634C30.7566 16.1803 30.7559 16.2217 30.7275 16.2379C30.6776 16.266 30.6355 16.2902 30.5924 16.3118V16.3121Z" fill="white"/>
</svg>
