<svg width="47" height="46" viewBox="0 0 47 46" fill="none" xmlns="http://www.w3.org/2000/svg">
<rect width="47" height="46" rx="4" fill="url(#paint0_linear_262_267)"/>
<path d="M22 34.1375V23.8625L13 18.65V28.925L22 34.1375ZM25 34.1375L34 28.925V18.65L25 23.8625V34.1375ZM22 37.5875L11.5 31.55C11.025 31.275 10.6565 30.9125 10.3945 30.4625C10.1325 30.0125 10.001 29.5125 10 28.9625V17.0375C10 16.4875 10.1315 15.9875 10.3945 15.5375C10.6575 15.0875 11.026 14.725 11.5 14.45L22 8.4125C22.475 8.1375 22.975 8 23.5 8C24.025 8 24.525 8.1375 25 8.4125L35.5 14.45C35.975 14.725 36.344 15.0875 36.607 15.5375C36.87 15.9875 37.001 16.4875 37 17.0375V28.9625C37 29.5125 36.869 30.0125 36.607 30.4625C36.345 30.9125 35.976 31.275 35.5 31.55L25 37.5875C24.525 37.8625 24.025 38 23.5 38C22.975 38 22.475 37.8625 22 37.5875ZM29.5 17.7875L32.3875 16.1375L23.5 11L20.575 12.6875L29.5 17.7875ZM23.5 21.275L26.425 19.5875L17.5375 14.45L14.6125 16.1375L23.5 21.275Z" fill="white"/>
<defs>
<linearGradient id="paint0_linear_262_267" x1="0.652778" y1="23" x2="47.6528" y2="23" gradientUnits="userSpaceOnUse">
<stop stop-color="#29265B"/>
<stop offset="1" stop-color="#009580"/>
</linearGradient>
</defs>
</svg>
