<svg width="208" height="37" viewBox="0 0 208 37" fill="none"
    xmlns="http://www.w3.org/2000/svg">
    <g clip-path="url(#clip0_1357_628)">
        <path d="M6.34842 35.3631C4.30639 34.3063 2.73831 32.8302 1.64415 30.9405C0.550001 29.0509 0 26.8511 0 24.3412C0 21.8313 0.550001 19.6315 1.64415 17.7418C2.73831 15.8522 4.30639 14.3761 6.34842 13.3193C8.39045 12.2625 10.7718 11.7283 13.4926 11.7283C16.2133 11.7283 18.6064 12.2567 20.666 13.3193C22.7256 14.3761 24.2995 15.8522 25.3937 17.7418C26.4878 19.6315 27.0378 21.8313 27.0378 24.3412C27.0378 26.8511 26.4878 29.0509 25.3937 30.9405C24.2995 32.8302 22.7197 34.3063 20.666 35.3631C18.6064 36.4199 16.2192 36.954 13.4926 36.954C10.766 36.954 8.39045 36.4256 6.34842 35.3631ZM17.6761 28.7408C18.7352 27.5978 19.2676 26.1332 19.2676 24.3412C19.2676 22.5492 18.7352 21.0846 17.6761 19.9416C16.6112 18.7987 15.2187 18.23 13.4926 18.23C11.7665 18.23 10.4208 18.7987 9.36173 19.9416C8.29683 21.0846 7.77023 22.5492 7.77023 24.3412C7.77023 26.1332 8.30268 27.5978 9.36173 28.7408C10.4208 29.8837 11.8016 30.4523 13.4926 30.4523C15.1835 30.4523 16.6112 29.8837 17.6761 28.7408Z" fill="white"/>
        <path d="M53.9996 14.6633C55.8076 16.6161 56.7145 19.3213 56.7145 22.7789V36.4141H48.8975V23.2154C48.8975 21.6532 48.4996 20.4298 47.7039 19.5511C46.9081 18.6723 45.814 18.23 44.4156 18.23C42.8884 18.23 41.6597 18.7355 40.7294 19.7463C39.7991 20.7572 39.3368 22.0782 39.3368 23.7036V36.4141H31.5198V12.2682H38.2895L38.7868 15.1055C39.7464 14.0315 40.9049 13.1987 42.2448 12.6128C43.5906 12.027 45.0767 11.7341 46.7033 11.7341C49.7576 11.7341 52.1858 12.7105 53.9996 14.669V14.6633Z" fill="white"/>
        <path d="M88.088 2.19977V36.4141H81.3183L80.8209 33.5309C78.7321 35.7766 76.0055 36.9023 72.6528 36.9023C70.3651 36.9023 68.3289 36.3739 66.5501 35.3114C64.7714 34.2546 63.3906 32.767 62.39 30.8659C61.3953 28.959 60.898 26.7822 60.898 24.3412C60.898 21.9002 61.3953 19.7234 62.39 17.8165C63.3847 15.9096 64.7714 14.4278 66.5501 13.371C68.323 12.3142 70.3592 11.78 72.6528 11.78C75.672 11.78 78.2114 12.7105 80.2709 14.5656V2.19977H88.088ZM78.7262 28.7637C79.8204 27.638 80.3704 26.1676 80.3704 24.3412C80.3704 22.5147 79.8204 21.0444 78.7262 19.9186C77.6321 18.7929 76.222 18.23 74.4959 18.23C72.7698 18.23 71.3656 18.7987 70.289 19.9416C69.2124 21.0846 68.6682 22.5492 68.6682 24.3412C68.6682 26.1332 69.2065 27.5978 70.289 28.7407C71.3656 29.8837 72.7698 30.4523 74.4959 30.4523C76.222 30.4523 77.6321 29.8895 78.7262 28.7637Z" fill="white"/>
        <path d="M112.832 13.2217C114.792 14.2153 116.296 15.6167 117.338 17.4259C118.385 19.2352 118.906 21.3431 118.906 23.7553C118.906 24.5365 118.824 25.5014 118.654 26.6386H100.58C100.814 27.8792 101.493 28.8786 102.622 29.6425C103.751 30.4064 105.197 30.7912 106.952 30.7912C108.181 30.7912 109.374 30.6132 110.539 30.2513C111.703 29.8952 112.698 29.3898 113.528 28.735L117.613 33.0369C116.22 34.3063 114.564 35.2827 112.657 35.9719C110.749 36.6554 108.713 37 106.56 37C103.704 37 101.229 36.4888 99.1407 35.4607C97.0518 34.4326 95.4369 32.9738 94.3135 31.0841C93.1843 29.1945 92.6226 26.9603 92.6226 24.3871C92.6226 21.814 93.1784 19.7119 94.2901 17.7878C95.4018 15.8637 96.9524 14.3761 98.9476 13.3136C100.937 12.2567 103.248 11.7226 105.869 11.7226C108.491 11.7226 110.884 12.2223 112.838 13.2159L112.832 13.2217ZM102.3 18.9652C101.323 19.7463 100.767 20.8376 100.633 22.239H111.486C111.387 20.8376 110.866 19.7463 109.918 18.9652C108.97 18.1841 107.701 17.7935 106.109 17.7935C104.518 17.7935 103.277 18.1841 102.3 18.9652Z" fill="white"/>
        <path d="M140.865 35.4894C138.94 36.4314 136.763 36.9081 134.341 36.9081C131.649 36.9081 129.525 36.1672 127.969 34.6853C126.407 33.2035 125.629 30.8142 125.629 27.5231V18.3851H121.445V12.274H125.629V6.26046L133.399 5.42764V12.2682H139.525V18.3794H133.399V27.5174C133.399 28.4938 133.65 29.2232 134.148 29.6942C134.645 30.1651 135.324 30.4006 136.19 30.4006C137.149 30.4006 138.097 30.1709 139.028 29.7172L140.871 35.4837L140.865 35.4894Z" fill="white"/>
        <path d="M169.997 12.2682V36.4141H163.228L162.73 33.5309C160.641 35.7766 157.915 36.9023 154.562 36.9023C152.274 36.9023 150.238 36.3739 148.459 35.3114C146.681 34.2546 145.3 32.767 144.299 30.8659C143.305 28.959 142.807 26.7822 142.807 24.3412C142.807 21.9002 143.305 19.7234 144.299 17.8165C145.294 15.9096 146.681 14.4278 148.459 13.371C150.232 12.3142 152.269 11.78 154.562 11.78C156.224 11.78 157.751 12.0672 159.144 12.6358C160.536 13.2044 161.736 14.0315 162.73 15.1055L163.228 12.2682H169.997ZM160.636 28.7637C161.73 27.638 162.28 26.1676 162.28 24.3412C162.28 22.5147 161.73 21.0444 160.636 19.9187C159.541 18.7929 158.131 18.23 156.405 18.23C154.679 18.23 153.275 18.7987 152.198 19.9416C151.122 21.0846 150.578 22.5492 150.578 24.3412C150.578 26.1332 151.116 27.5978 152.198 28.7408C153.275 29.8837 154.679 30.4523 156.405 30.4523C158.131 30.4523 159.541 29.8895 160.636 28.7637Z" fill="white"/>
        <path d="M198.404 15.1285C200.177 17.1158 201.066 19.8038 201.066 23.1925V36.8277H193.249V23.629C193.249 22.0667 192.857 20.8434 192.079 19.9646C191.301 19.0858 190.213 18.6436 188.82 18.6436C187.293 18.6436 186.058 19.149 185.111 20.1599C184.163 21.1707 183.689 22.4918 183.689 24.1172V36.8277H175.872V2.61331H183.689V15.3238C185.579 13.2044 188.089 12.1476 191.207 12.1476C194.326 12.1476 196.626 13.1413 198.404 15.1285Z" fill="white"/>
        <path d="M207.971 5.18643C207.924 5.64017 207.807 6.08242 207.643 6.50744C207.374 7.2139 206.976 7.85718 206.514 8.45451C205.993 9.12651 205.396 9.72384 204.77 10.2982C204.185 10.8381 203.594 11.3722 203.009 11.9064C202.424 11.3722 201.833 10.8323 201.248 10.2982C200.622 9.72384 200.025 9.12651 199.504 8.45451C199.042 7.85144 198.644 7.2139 198.375 6.50744C198.211 6.08242 198.094 5.64017 198.047 5.18643C197.93 4.009 198.24 2.94644 198.989 2.02173C199.493 1.40142 200.101 0.901732 200.832 0.551375C201.359 0.298659 201.909 0.120608 202.494 0.0401987C202.67 0.0172244 202.839 0.0057373 203.015 0.0057373C203.19 0.0057373 203.36 0.0172244 203.536 0.0401987C204.121 0.120608 204.671 0.292915 205.197 0.551375C205.923 0.901732 206.537 1.40142 207.04 2.02173C207.789 2.95218 208.099 4.009 207.982 5.18643H207.971Z" fill="#009580"/>
    </g>
    <defs>
        <clipPath id="clip0_1357_628">
            <rect width="208" height="37" fill="white"/>
        </clipPath>
    </defs>
</svg>
